<?xml version="1.0" encoding="UTF-8"?>
<svg width="32px" height="32px" viewBox="0 0 32 32" version="1.1" xmlns="http://www.w3.org/2000/svg" xmlns:xlink="http://www.w3.org/1999/xlink">
    <!-- Generator: Sketch 51.2 (57519) - http://www.bohemiancoding.com/sketch -->
    <title>email</title>
    <desc>Created with Sketch.</desc>
    <defs></defs>
    <g id="Page-1" stroke="none" stroke-width="1" fill="none" fill-rule="evenodd">
        <g id="about" transform="translate(-653.000000, -737.000000)" fill="#000000" fill-rule="nonzero">
            <g id="email" transform="translate(652.000000, 736.000000)">
                <path d="M32.7,13.9 C31.5,7.6 26.4,2.5 20.1,1.3 C8.9,-0.9 -0.9,8.9 1.3,20.1 C2.5,26.4 7.6,31.4 13.9,32.7 C25.1,34.9 34.9,25.1 32.7,13.9 Z M7.5,22.3 L7.5,13.5 C7.5,13.4 7.7,13.3 7.8,13.3 L12.5,16.2 C12.6,16.3 12.6,16.4 12.5,16.5 L7.8,22.4 C7.7,22.5 7.5,22.4 7.5,22.3 Z M25.5,23.5 L8.5,23.5 C8.3,23.5 8.2,23.3 8.3,23.2 L13.3,16.9 C13.4,16.8 13.5,16.8 13.6,16.9 L16.9,18.9 C17,18.9 17,18.9 17.1,18.9 L20.4,16.9 C20.5,16.8 20.6,16.9 20.7,16.9 L25.7,23.2 C25.8,23.3 25.7,23.5 25.5,23.5 Z M26.5,22.2 C26.5,22.4 26.3,22.5 26.2,22.3 L21.5,16.4 C21.4,16.3 21.5,16.2 21.5,16.1 L26.2,13.2 C26.3,13.1 26.5,13.2 26.5,13.4 L26.5,22.2 Z M26.5,11.9 C26.5,12 26.5,12 26.4,12.1 L17.1,17.9 C17,17.9 17,17.9 16.9,17.9 L7.6,12.2 C7.5,12.2 7.5,12.1 7.5,12 L7.5,10.7 C7.5,10.6 7.6,10.5 7.7,10.5 L26.3,10.5 C26.4,10.5 26.5,10.6 26.5,10.7 L26.5,11.9 Z" id="Shape"></path>
            </g>
        </g>
    </g>
</svg>