<?xml version="1.0" encoding="UTF-8"?>
<svg width="32px" height="32px" viewBox="0 0 32 32" version="1.1" xmlns="http://www.w3.org/2000/svg" xmlns:xlink="http://www.w3.org/1999/xlink">
    <!-- Generator: Sketch 51.2 (57519) - http://www.bohemiancoding.com/sketch -->
    <title>linkedin</title>
    <desc>Created with Sketch.</desc>
    <defs></defs>
    <g id="Page-1" stroke="none" stroke-width="1" fill="none" fill-rule="evenodd">
        <g id="about" transform="translate(-696.000000, -736.000000)" fill="#000000" fill-rule="nonzero">
            <g id="linkedin" transform="translate(696.000000, 736.000000)">
                <path d="M25,23.5 L25,17.3 C25,14 23.2,12.4 20.8,12.4 C18.9,12.4 18,13.5 17.5,14.2 L17.5,12.7 L13.9,12.7 C13.9,13.7 13.9,23.6 13.9,23.6 L17.5,23.6 L17.5,17.5 C17.5,17.2 17.5,16.8 17.6,16.6 C17.9,15.9 18.5,15.3 19.5,15.3 C20.8,15.3 21.3,16.3 21.3,17.8 L21.3,23.6 L25,23.5 Z M10.1,11.2 C11.4,11.2 12.1,10.4 12.1,9.3 C12.1,8.2 11.3,7.4 10.1,7.4 C8.9,7.4 8.1,8.2 8.1,9.3 C8.1,10.3 8.9,11.2 10.1,11.2 Z M16,32 C7.2,32 0,24.8 0,16 C0,7.2 7.2,0 16,0 C24.8,0 32,7.2 32,16 C32,24.8 24.8,32 16,32 Z M11.9,23.5 L11.9,12.6 L8.3,12.6 L8.3,23.5 L11.9,23.5 Z" id="Shape"></path>
            </g>
        </g>
    </g>
</svg>